<?xml version="1.0" encoding="utf-8"?>
<!-- Generator: Adobe Illustrator 24.1.3, SVG Export Plug-In . SVG Version: 6.00 Build 0)  -->
<svg version="1.1" xmlns="http://www.w3.org/2000/svg" xmlns:xlink="http://www.w3.org/1999/xlink" x="0px" y="0px" width="636.4px"
	 height="144px" viewBox="0 0 636.4 144" style="enable-background:new 0 0 636.4 144;" xml:space="preserve">
<style type="text/css">
	.st0{fill:#FFFFFF;}
	.st1{fill:url(#SVGID_1_);}
	.st2{fill:url(#SVGID_2_);}
	.st3{fill:url(#SVGID_3_);}
</style>
<g id="Brand_name">
	<path id="r" class="st0" d="M372.5,12.4v7.4c-0.7-0.1-1.3-0.2-1.8-0.2c-3.1,0-5.5,0.9-7.2,2.7c-1.7,1.8-2.6,4.3-2.6,7.6v16.2h-7.9
		V12.4h7.5v5.2C362.7,14.2,366.7,12.4,372.5,12.4z"/>
	<path id="e" class="st0" d="M347.6,31.7h-25.8c0.5,2.4,1.6,4.3,3.5,5.8c1.9,1.4,4.3,2.1,7.1,2.1c3.6,0,6.6-1.2,8.9-3.6l4.4,4.4
		c-1.5,1.8-3.6,3.4-5.9,4.3c-2.3,0.9-4.8,1.4-7.6,1.4c-3.6,0-6.8-0.7-9.5-2.2c-2.7-1.4-4.9-3.4-6.4-6c-1.5-2.6-2.2-5.5-2.2-8.7
		c0-3.2,0.7-6.1,2.2-8.6c1.5-2.6,3.5-4.6,6.1-6c2.6-1.4,5.5-2.2,8.7-2.2c3.2,0,6.1,0.7,8.6,2.1c2.5,1.4,4.5,3.4,5.9,6
		c1.4,2.6,2.1,5.5,2.1,8.9C347.7,29.9,347.7,30.7,347.6,31.7z M324.9,20.8c-1.7,1.5-2.7,3.4-3.1,5.8h18.6c-0.3-2.4-1.3-4.3-3-5.8
		c-1.7-1.5-3.8-2.2-6.3-2.2C328.6,18.6,326.6,19.3,324.9,20.8z"/>
	<path id="v" class="st0" d="M314.5,12.4l-14.6,33.7h-7.6l-14.6-33.7h8l10.6,24.8l10.9-24.8L314.5,12.4L314.5,12.4z"/>
	<path id="e_1_" class="st0" d="M278.4,31.7h-25.8c0.5,2.4,1.6,4.3,3.5,5.8c1.9,1.4,4.3,2.1,7.1,2.1c3.6,0,6.6-1.2,8.9-3.6l4.4,4.4
		c-1.5,1.8-3.6,3.4-5.9,4.3c-2.3,0.9-4.8,1.4-7.6,1.4c-3.6,0-6.8-0.7-9.5-2.2c-2.7-1.4-4.9-3.4-6.4-6c-1.5-2.6-2.2-5.5-2.2-8.7
		c0-3.2,0.7-6.1,2.2-8.6c1.5-2.6,3.5-4.6,6.1-6c2.6-1.4,5.5-2.2,8.7-2.2c3.2,0,6.1,0.7,8.6,2.1c2.5,1.4,4.5,3.4,5.9,6
		s2.1,5.5,2.1,8.9C278.5,29.9,278.5,30.7,278.4,31.7z M255.6,20.8c-1.7,1.5-2.7,3.4-3.1,5.8h18.6c-0.3-2.4-1.3-4.3-3-5.8
		c-1.7-1.5-3.8-2.2-6.3-2.2C259.4,18.6,257.3,19.3,255.6,20.8z"/>
	<path id="l" class="st0" d="M230.2,0h7.7v46.1h-7.7V0z"/>
	<polygon id="k_2_" class="st0" points="214.2,12.4 223.8,12.4 202.9,33.4 198.1,28.6 	"/>
	<polyline id="k_1_" class="st0" points="198.1,28.5 202.8,23.8 225.1,46.1 215.6,46.1 198.1,28.6 198.1,28.5 	"/>
	<rect id="k" x="191.5" y="0" class="st0" width="7.7" height="46.1"/>
</g>
<g id="Exchange">
	<path class="st0" d="M237.4,105.3h-37.9c1.4,7,7.2,11.6,15.6,11.6c5.4,0,9.7-1.7,13.1-5.2l6.1,7c-4.3,5.1-11.1,7.9-19.4,7.9
		c-16.2,0-26.7-10.4-26.7-24.8S198.8,77,213.2,77c14.1,0,24.4,9.8,24.4,24.9C237.6,102.9,237.5,104.2,237.4,105.3z M199.5,97.8h27.4
		c-0.9-7-6.2-11.7-13.6-11.7C205.9,86.1,200.5,90.8,199.5,97.8z"/>
	<path class="st0" d="M277.8,125.8l-12.4-16.7l-12.5,16.7h-12.5l18.8-24.5l-18-23.8h12.6l11.8,15.8l11.8-15.8h12.2l-18.1,23.6
		l18.9,24.7H277.8z"/>
	<path class="st0" d="M293.2,101.7c0-14.5,10.8-24.7,26.1-24.7c9.4,0,16.9,3.9,20.6,11.2l-8.7,5.1c-2.9-4.6-7.2-6.7-12-6.7
		c-8.3,0-14.6,5.8-14.6,15.1c0,9.4,6.3,15.1,14.6,15.1c4.8,0,9.1-2.1,12-6.7l8.7,5.1c-3.7,7.2-11.2,11.3-20.6,11.3
		C304.1,126.5,293.2,116.2,293.2,101.7z"/>
	<path class="st0" d="M396.8,98.2v27.6h-11.3V99.6c0-8.6-4.2-12.7-11.5-12.7c-8,0-13.5,4.9-13.5,14.5v24.4h-11.3v-67h11.3v24.4
		c3.7-4,9.4-6.1,16.1-6.1C388.2,77,396.8,83.6,396.8,98.2z"/>
	<path class="st0" d="M451.5,97.6v28.3h-10.7V120c-2.7,4.2-8,6.5-15.2,6.5c-11,0-18-6.1-18-14.5c0-8,5.4-14.4,20.1-14.4h12.5v-0.7
		c0-6.6-4-10.5-12-10.5c-5.4,0-11,1.8-14.6,4.8l-4.4-8.2c5.1-4,12.6-6,20.4-6C443.5,77,451.5,83.6,451.5,97.6z M440.2,110.7v-5.6
		h-11.7c-7.7,0-9.8,2.9-9.8,6.4c0,4.1,3.4,6.7,9.2,6.7C433.5,118.2,438.3,115.7,440.2,110.7z"/>
	<path class="st0" d="M513.5,98.2v27.6h-11.3V99.6c0-8.6-4.2-12.7-11.5-12.7c-8,0-13.5,4.9-13.5,14.5v24.4H466V77.6h10.8v6.2
		c3.7-4.4,9.6-6.8,16.6-6.8C504.9,77,513.5,83.6,513.5,98.2z"/>
	<path class="st0" d="M576.2,77.6v40.9c0,17.5-9.1,25.5-26,25.5c-9,0-18-2.3-23.5-6.9l5.1-8.5c4.2,3.5,11.1,5.8,17.8,5.8
		c10.7,0,15.4-4.9,15.4-14.6v-2.5c-4,4.3-9.7,6.4-16.2,6.4c-13.8,0-24.4-9.4-24.4-23.4S534.9,77,548.7,77c6.8,0,12.7,2.2,16.7,7
		v-6.4H576.2z M565.1,100.3c0-8.1-6.1-13.6-14.6-13.6c-8.6,0-14.7,5.5-14.7,13.6c0,8.2,6.1,13.8,14.7,13.8
		C558.9,114.1,565.1,108.5,565.1,100.3z"/>
	<path class="st0" d="M636.2,105.3h-37.9c1.4,7,7.2,11.6,15.6,11.6c5.4,0,9.7-1.7,13.1-5.2l6.1,7c-4.3,5.1-11.1,7.9-19.4,7.9
		c-16.2,0-26.7-10.4-26.7-24.8S597.6,77,612,77c14.1,0,24.4,9.8,24.4,24.9C636.4,102.9,636.3,104.2,636.2,105.3z M598.2,97.8h27.4
		c-0.9-7-6.2-11.7-13.6-11.7C604.7,86.1,599.3,90.8,598.2,97.8z"/>
</g>
<g id="logo">
	<linearGradient id="SVGID_1_" gradientUnits="userSpaceOnUse" x1="113.2523" y1="62.9179" x2="113.2523" y2="124.026">
		<stop  offset="0" style="stop-color:#FE4682"/>
		<stop  offset="1" style="stop-color:#9D44F5"/>
	</linearGradient>
	<path class="st1" d="M125.8,62.9c-8.4,8.4-16.8,16.8-25.2,25.2c0,12.6,0,25.2,0,37.8h25.2C125.8,104.9,125.8,83.9,125.8,62.9z"/>
	<linearGradient id="SVGID_2_" gradientUnits="userSpaceOnUse" x1="62.9179" y1="50.3343" x2="62.9179" y2="124.1336">
		<stop  offset="0" style="stop-color:#FE4682"/>
		<stop  offset="1" style="stop-color:#9D44F5"/>
	</linearGradient>
	<path class="st2" d="M75.5,75.5c-8.4-8.4-16.8-16.8-25.2-25.2c0,25.2,0,50.3,0,75.5h25.2C75.5,109.1,75.5,92.3,75.5,75.5z"/>
	<linearGradient id="SVGID_3_" gradientUnits="userSpaceOnUse" x1="12.5836" y1="0" x2="12.5836" y2="123.0002">
		<stop  offset="0" style="stop-color:#FE4682"/>
		<stop  offset="1" style="stop-color:#9D44F5"/>
	</linearGradient>
	<path class="st3" d="M25.2,25.2C16.8,16.8,8.4,8.4,0,0v125.8h25.2C25.2,92.3,25.2,58.7,25.2,25.2z"/>
</g>
</svg>
